<svg xmlns="http://www.w3.org/2000/svg" width="300" height="300" fill="none" viewBox="0 0 300 300"><path fill="url(#a)" d="M229.694 0H70.306C31.477 0 0 31.477 0 70.306v159.388C0 268.523 31.477 300 70.306 300h159.388C268.523 300 300 268.523 300 229.694V70.306C300 31.477 268.523 0 229.694 0"/><path fill="#fff" d="M179.112 177.19c-1.436-1.413-2.08-4.261-2.08-9.246v-41.539c0-4.59-3.425-7.653-10.478-9.359-4.51-1.086-9.958-1.945-15.949-1.945-8.534 0-18.164 1.73-27.75 6.997-9.562 5.256-16.604 14.163-19.306 24.438-1.13 4.306-4.012 19.26 6.341 31.004 5.505 6.251 13.903 9.891 22.494 9.733 9.065-.17 16.751-4.646 20.199-8.06 3.086 3.177 7.471 4.522 13.225 4.522s11.145-1.978 14.05-4.284c.599-.475.497-1.39-.147-1.797a4 4 0 0 1-.599-.475zm-30.214-21.6c0 6.228-2.939 9.11-5.414 10.444-1.345.723-2.736.972-3.979.972-1.515 0-2.803-.373-3.515-.701-2.905-1.368-4.476-3.843-4.962-7.788-.373-3.029-.667-10.817 4.611-17.859 3.154-4.205 7.788-7.008 11.338-6.827 1.062.056 1.921.961 1.921 2.012v19.758zm83.542-45.485c-9.065.17-16.751 4.646-20.199 8.059-3.074-3.176-7.471-4.521-13.213-4.521s-11.134 1.978-14.05 4.284c-.599.475-.497 1.39.147 1.797.215.136.407.294.599.475 1.436 1.413 2.068 4.261 2.068 9.235v74.409a4.39 4.39 0 0 0 4.85 4.375l13.394-1.357c5.618-.565 9.89-5.301 9.89-10.953v-16.197c6.918 2.373 19.702 1.695 29.174-3.9 8.116-4.792 14.084-12.84 16.695-23.94 1.017-4.329 3.493-20.29-6.861-32.045-5.505-6.251-13.903-9.89-22.494-9.732zm-3.255 46.649c-3.154 4.193-7.788 7.008-11.337 6.827-1.063-.057-1.922-.961-1.922-2.012v-19.758c0-6.228 2.939-9.111 5.415-10.444 1.345-.724 2.735-.972 3.978-.972 1.515 0 2.803.373 3.516.7 2.905 1.368 4.476 3.843 4.962 7.788.373 3.03.667 10.818-4.612 17.86z"/><path fill="#fff" d="M118.176 108.297V96.372a4.4 4.4 0 0 0-4.838-4.374L65.627 96.79s-2.487.226-4.917.396c-4.33.305-7.596.395-10.026-.667-1.413-.622-3.312-2-4.261-4.137a1.088 1.088 0 0 0-1.775-.305c-2.792 2.938-5.561 7.37-6.646 11.484-1.187 4.487-1.515 10.421 2.147 14.852 2.657 3.222 7.302 5.98 17.306 4.974 2.373-.238 4.883-.498 6.318-.645a1.087 1.087 0 0 1 1.198 1.086v61.568a4.39 4.39 0 0 0 4.85 4.375l14.874-1.504c5.618-.565 9.89-5.301 9.89-10.952v-56.698c0-.565.43-1.028.984-1.085l13.711-1.379a9.897 9.897 0 0 0 8.907-9.856z"/><defs><linearGradient id="a" x1="94.168" x2="193.286" y1="-3.402" y2="299.537" gradientUnits="userSpaceOnUse"><stop stop-color="#01f3c7"/><stop offset=".49" stop-color="#00d8c4"/><stop offset="1" stop-color="#00cee2"/></linearGradient></defs></svg>